<?xml version="1.0" encoding="UTF-8"?>
<svg width="632px" height="82px" viewBox="0 0 632 82" version="1.1" xmlns="http://www.w3.org/2000/svg" xmlns:xlink="http://www.w3.org/1999/xlink">
    <!-- Generator: Sketch 43.1 (39012) - http://www.bohemiancoding.com/sketch -->
    <title>beta 黑</title>
    <desc>Created with Sketch.</desc>
    <defs>
        <polygon id="path-1" points="0.0489 82 81.9359 82 81.9359 0.00103114037 0.0489 0.00103114037 0.0489 82"></polygon>
        <polygon id="path-3" points="0.5937 82 82.4827 82 82.4827 0.00103114037 0.5937 0.00103114037 0.5937 82"></polygon>
        <polygon id="path-5" points="131.113 0.0001 131.113 50.0001 0.4873 50.0001 0.4873 0.0001 131.113 0.0001"></polygon>
    </defs>
    <g id="Page-1" stroke="none" stroke-width="1" fill="none" fill-rule="evenodd">
        <g id="beta-黑">
            <path d="M162.8328,41.5284 C162.6508,56.4464 154.4798,69.4404 142.4098,76.4484 L142.4098,81.8434 L142.4878,81.9284 L160.1748,81.9284 C160.6108,81.9284 161.0338,81.9414 161.4418,81.9674 C161.8528,81.9934 162.2738,81.9804 162.7168,81.9284 L162.7938,81.8434 L162.7938,50.8894 C162.7938,48.2694 162.8078,45.6624 162.8398,43.0694 C162.8468,42.5494 162.8468,42.0354 162.8328,41.5284" id="Fill-1" fill="#717071"></path>
            <g id="Group-5" transform="translate(168.000000, 0.000000)">
                <mask id="mask-2" fill="white">
                    <use xlink:href="#path-1"></use>
                </mask>
                <g id="Clip-4"></g>
                <path d="M81.9359,82.0001 L61.4629,82.0001 L61.4629,40.9771 C61.4629,39.3391 61.2999,37.8231 60.9709,36.4321 C60.6439,35.0401 60.2069,33.7441 59.6629,32.5401 C58.6259,30.2501 57.2309,28.2301 55.4879,26.4801 C53.7379,24.7331 51.7179,23.3421 49.4249,22.3061 C48.2239,21.7621 46.9419,21.3111 45.5789,20.9541 C44.2119,20.6001 42.6829,20.4221 40.9929,20.4221 C39.3549,20.4221 37.8389,20.6001 36.4479,20.9541 C35.0559,21.3111 33.7569,21.7621 32.5589,22.3061 C30.2649,23.3421 28.2439,24.7331 26.4979,26.4801 C25.6809,27.3541 24.9139,28.2821 24.2059,29.2671 C23.4959,30.2501 22.8669,31.3401 22.3219,32.5401 C21.7749,33.7441 21.3389,35.0401 21.0119,36.4321 C20.6849,37.8231 20.5209,39.3391 20.5209,40.9771 L20.5209,82.0001 L0.1309,82.0001 L0.0489,82.0001 L0.0489,41.4261 L0.0489,41.0991 C0.1029,40.9891 0.1439,40.9631 0.1709,41.0171 C0.1989,41.0721 0.2119,41.0421 0.2119,40.9341 L0.2119,40.1151 C0.2669,39.5151 0.2939,38.9261 0.2939,38.3531 C0.2939,37.7781 0.3489,37.1911 0.4569,36.5891 C0.7309,34.2941 1.1399,32.1501 1.6869,30.1551 C2.2319,28.1621 2.8869,26.2911 3.6509,24.5411 C6.8169,17.6001 11.3759,11.9731 17.3279,7.6561 C19.5639,6.0701 21.9939,4.6901 24.6139,3.5161 C27.2359,2.3421 30.1279,1.4261 33.2949,0.7701 C34.0599,0.6061 34.8639,0.4821 35.7099,0.4021 C36.5559,0.3171 37.4429,0.2261 38.3719,0.1141 C41.2649,-0.1029 44.0079,-0.0079 46.6029,0.4021 C49.1939,0.8121 51.5549,1.3711 53.6829,2.0831 C57.4509,3.3381 60.8909,5.0311 64.0019,7.1631 C67.0589,9.2421 69.7749,11.6701 72.1479,14.4581 C74.5249,17.2441 76.5019,20.4141 78.0849,23.9681 C78.9069,25.7721 79.6149,27.6571 80.2149,29.6251 C80.8149,31.5911 81.2519,33.7201 81.5259,36.0161 C81.6339,36.7811 81.7159,37.5461 81.7699,38.3121 C81.8259,39.0751 81.8529,39.8421 81.8529,40.6051 L81.8529,40.9341 C81.8529,41.0421 81.8669,41.0721 81.8929,41.0171 C81.9209,40.9631 81.9359,40.9891 81.9359,41.0991 L81.9359,41.4261 L81.9359,82.0001 Z" id="Fill-3" fill="#717071" mask="url(#mask-2)"></path>
            </g>
            <g id="Group-8" transform="translate(255.000000, 0.000000)">
                <mask id="mask-4" fill="white">
                    <use xlink:href="#path-3"></use>
                </mask>
                <g id="Clip-7"></g>
                <path d="M82.4827,82.0001 L62.0107,82.0001 L62.0107,40.9771 C62.0107,39.3391 61.8477,37.8231 61.5207,36.4321 C61.1907,35.0401 60.7537,33.7441 60.2097,32.5401 C59.1707,30.2501 57.7787,28.2301 56.0327,26.4801 C54.2847,24.7331 52.2657,23.3421 49.9717,22.3061 C48.7717,21.7621 47.4887,21.3111 46.1237,20.9541 C44.7597,20.6001 43.2307,20.4221 41.5397,20.4221 C39.9007,20.4221 38.3867,20.6001 36.9927,20.9541 C35.6027,21.3111 34.3037,21.7621 33.1027,22.3061 C30.8127,23.3421 28.7917,24.7331 27.0447,26.4801 C26.2267,27.3541 25.4597,28.2821 24.7517,29.2671 C24.0427,30.2501 23.4147,31.3401 22.8677,32.5401 C22.3217,33.7441 21.8877,35.0401 21.5597,36.4321 C21.2307,37.8231 21.0677,39.3391 21.0677,40.9771 L21.0677,82.0001 L0.6767,82.0001 L0.5937,82.0001 L0.5937,41.4261 L0.5937,41.0991 C0.6497,40.9891 0.6897,40.9631 0.7167,41.0171 C0.7447,41.0721 0.7597,41.0421 0.7597,40.9341 L0.7597,40.1151 C0.8127,39.5151 0.8397,38.9261 0.8397,38.3531 C0.8397,37.7781 0.8947,37.1911 1.0057,36.5891 C1.2777,34.2941 1.6857,32.1501 2.2317,30.1551 C2.7767,28.1621 3.4347,26.2911 4.1977,24.5411 C7.3637,17.6001 11.9207,11.9731 17.8717,7.6561 C20.1117,6.0701 22.5427,4.6901 25.1597,3.5161 C27.7807,2.3421 30.6727,1.4261 33.8397,0.7701 C34.6037,0.6061 35.4097,0.4821 36.2577,0.4021 C37.1037,0.3171 37.9887,0.2261 38.9197,0.1141 C41.8097,-0.1029 44.5547,-0.0079 47.1487,0.4021 C49.7407,0.8121 52.1037,1.3711 54.2327,2.0831 C57.9997,3.3381 61.4377,5.0311 64.5487,7.1631 C67.6037,9.2421 70.3207,11.6701 72.6997,14.4581 C75.0717,17.2441 77.0507,20.4141 78.6337,23.9681 C79.4527,25.7721 80.1607,27.6571 80.7627,29.6251 C81.3627,31.5911 81.7957,33.7201 82.0737,36.0161 C82.1807,36.7811 82.2637,37.5461 82.3167,38.3121 C82.3717,39.0751 82.3997,39.8421 82.3997,40.6051 L82.3997,40.9341 C82.3997,41.0421 82.4137,41.0721 82.4417,41.0171 C82.4687,40.9631 82.4827,40.9891 82.4827,41.0991 L82.4827,41.4261 L82.4827,82.0001 Z" id="Fill-6" fill="#717071" mask="url(#mask-4)"></path>
            </g>
            <path d="M451.5716,81.9444 L431.1006,81.9444 L431.1006,41.4934 L431.1006,41.1644 L431.1006,41.0824 C431.1006,41.0274 431.1306,41.0024 431.1836,41.0024 C431.2906,37.6724 431.6606,34.6284 432.2896,31.8704 C432.9156,29.1164 433.7746,26.5604 434.8696,24.2144 C436.9966,19.5194 439.7816,15.4814 443.2186,12.0924 C444.9096,10.4024 446.7556,8.8464 448.7476,7.4284 C450.7386,6.0064 452.9126,4.7784 455.2576,3.7414 C457.6066,2.6524 460.1556,1.7764 462.9126,1.1244 C465.6726,0.4654 468.7136,0.1134 472.0446,0.0564 L472.0446,20.3654 C468.7686,20.4754 465.9686,21.0754 463.6506,22.1664 C461.3326,23.2614 459.2986,24.6764 457.5506,26.4234 C456.7336,27.2994 455.9676,28.2254 455.2576,29.2074 C454.5476,30.1924 453.9206,31.2834 453.3726,32.4844 C452.8266,33.6854 452.3926,34.9694 452.0646,36.3334 C451.7376,37.6994 451.5716,39.2274 451.5716,40.9194 L451.5716,81.8624 L451.5716,81.9444 Z" id="Fill-9" fill="#717071"></path>
            <path d="M366.1507,30.7594 C366.1607,30.7384 366.1897,30.6984 366.1997,30.6794 C367.8287,27.8434 370.0647,25.4984 372.9097,23.6424 C374.3267,22.7144 375.8937,21.9554 377.6197,21.3974 C379.3377,20.8174 381.2237,20.4794 383.2987,20.3574 C385.5457,20.3184 387.6717,20.5874 389.6887,21.1864 C392.5227,21.9444 394.9477,23.1634 396.9347,24.8304 C397.1747,25.0304 397.4127,25.2384 397.6427,25.4494 C398.7307,26.4264 399.6987,27.5054 400.5467,28.7044 C400.7277,28.9524 400.9187,29.2134 401.0887,29.4714 C401.2067,29.6414 401.3167,29.8104 401.4257,29.9804 C401.5957,30.2314 401.7357,30.4884 401.8947,30.7594 L366.1507,30.7594 Z M424.9837,39.8904 C424.9717,39.4634 424.9427,39.0234 424.9227,38.5944 C424.7617,35.9894 424.3847,33.4654 423.7657,31.0084 C423.6657,30.6004 423.5457,30.2104 423.4357,29.8014 C422.5677,26.7164 421.3287,23.7614 419.7827,21.0154 C419.6037,20.6764 419.4037,20.3384 419.1927,20.0074 C418.0747,18.1724 416.8387,16.4334 415.4897,14.8004 C414.1717,13.2524 412.7467,11.7644 411.1877,10.3564 C410.8287,10.0364 410.4697,9.7174 410.0987,9.4084 C410.0507,9.3784 410.0197,9.3594 409.9807,9.3294 C407.8047,7.5424 405.4277,5.9734 402.9237,4.6564 C402.7437,4.5694 402.5647,4.4754 402.3827,4.3984 C401.0767,3.7974 399.7107,3.2094 398.2927,2.6394 C397.9927,2.5304 397.6937,2.4024 397.4037,2.3004 C393.2207,0.8544 388.7397,0.0654 384.0687,0.0654 C383.6297,0.0654 383.1897,0.0764 382.7597,0.0864 C382.3117,0.1054 381.8807,0.1244 381.4537,0.1554 C381.2937,0.1654 381.1327,0.1764 380.9637,0.1954 C380.6637,0.2154 380.3447,0.2344 380.0357,0.2654 C379.8857,0.2844 379.7557,0.3054 379.6047,0.3144 C378.7377,0.4064 377.8887,0.5334 377.0507,0.6654 C376.9627,0.6754 376.8707,0.7034 376.7907,0.7144 C375.9537,0.8734 375.1257,1.0424 374.3067,1.2424 C373.4477,1.4524 372.5987,1.6934 371.7517,1.9624 C371.4117,2.0614 371.0707,2.1734 370.7427,2.2904 C370.5907,2.3314 370.4417,2.3914 370.2937,2.4504 C369.9437,2.5714 369.6147,2.7004 369.2747,2.8314 C368.8757,2.9794 368.4767,3.1384 368.0867,3.3094 C368.0677,3.3094 368.0467,3.3204 368.0387,3.3304 C367.6487,3.4894 367.2577,3.6594 366.8797,3.8484 C365.9827,4.2484 365.1117,4.6964 364.2547,5.1764 C363.9747,5.3264 363.6757,5.4964 363.4057,5.6564 C362.6677,6.0854 361.9597,6.5444 361.2497,7.0124 C360.5197,7.4924 359.8117,8.0204 359.1037,8.5614 C358.4257,9.0904 357.7567,9.6264 357.1067,10.1964 C356.4687,10.7664 355.8297,11.3544 355.2307,11.9624 C355.0017,12.1834 354.7727,12.4034 354.5627,12.6424 C354.3327,12.8714 354.1137,13.1014 353.9037,13.3414 C353.6127,13.6404 353.3447,13.9594 353.0647,14.2794 C352.8457,14.5184 352.6457,14.7684 352.4357,15.0274 C352.2267,15.2884 352.0067,15.5474 351.7977,15.8254 C350.7707,17.1444 349.8197,18.5114 348.9517,19.9484 C348.9317,19.9984 348.9127,20.0404 348.8717,20.0884 C348.6737,20.4264 348.4637,20.7764 348.2727,21.1364 C348.0447,21.5364 347.8347,21.9554 347.6147,22.3654 C347.4247,22.7334 347.2457,23.0924 347.0867,23.4734 C347.0167,23.5824 346.9657,23.6904 346.9267,23.8134 C346.8167,24.0414 346.7067,24.2604 346.6167,24.4894 C346.3467,25.0704 346.1087,25.6494 345.8867,26.2284 C345.7087,26.6764 345.5397,27.1454 345.3887,27.6064 C345.2887,27.8564 345.2097,28.1254 345.1297,28.3844 C345.0207,28.7044 344.9207,29.0314 344.8307,29.3524 C344.7407,29.6414 344.6507,29.9214 344.5807,30.2104 C344.4407,30.7194 344.3007,31.2384 344.1907,31.7564 C344.1217,32.0564 344.0507,32.3354 344.0037,32.6454 C343.8517,33.3444 343.7207,34.0534 343.6117,34.7634 C343.5627,35.1114 343.5117,35.4504 343.4707,35.7904 C343.4427,36.0094 343.4227,36.2384 343.3917,36.4684 C343.3437,36.9184 343.2947,37.3864 343.2617,37.8574 C343.2047,38.5534 343.1727,39.2564 343.1437,39.9624 C343.1337,40.5304 343.1437,41.0604 343.1437,41.6084 C343.1637,42.6964 343.2227,43.7654 343.3127,44.8234 C343.3527,45.1824 343.3917,45.5314 343.4317,45.8814 C343.4707,46.3004 343.5317,46.7104 343.5917,47.1084 C343.6417,47.3884 343.6927,47.6874 343.7417,47.9754 C343.7927,48.3374 343.8517,48.6774 343.9307,49.0154 C344.0037,49.3544 344.0607,49.6944 344.1397,50.0334 C344.2217,50.3724 344.3007,50.7124 344.3817,51.0424 C344.6297,52.0614 344.9297,53.0884 345.2697,54.0774 C345.3707,54.3754 345.4887,54.6944 345.5987,55.0044 C345.7087,55.3234 345.8387,55.6314 345.9577,55.9624 C346.2077,56.6014 346.4657,57.2314 346.7557,57.8494 C346.8867,58.1484 347.0267,58.4474 347.1747,58.7484 C347.3647,59.1384 347.5647,59.5254 347.7547,59.9154 C350.7707,65.6764 355.1007,70.6364 360.3817,74.3794 C360.4407,74.4394 360.5197,74.4884 360.6017,74.5394 C360.9107,74.7484 361.2107,74.9584 361.5187,75.1554 C361.8697,75.3984 362.2187,75.6284 362.5777,75.8364 C362.9077,76.0564 363.2477,76.2664 363.5947,76.4564 C364.2057,76.8034 364.8137,77.1344 365.4417,77.4544 C365.7327,77.6044 366.0317,77.7424 366.3207,77.8924 C366.6197,78.0424 366.9197,78.1834 367.2197,78.3114 C369.3357,79.2814 371.5507,80.0484 373.8477,80.6384 C373.9567,80.6774 374.0767,80.7074 374.2067,80.7264 C374.6447,80.8484 375.1037,80.9384 375.5537,81.0374 C376.9407,81.3064 378.3677,81.5364 379.8657,81.6974 C381.0137,81.8154 382.1407,81.8854 383.2597,81.9264 C383.5287,81.9364 383.7907,81.9364 384.0687,81.9364 C384.4177,81.9364 384.7667,81.9364 385.1157,81.9264 C385.6057,81.9054 386.0837,81.8854 386.5747,81.8664 C388.0017,81.7764 389.4087,81.6064 390.7867,81.3764 C390.8557,81.3674 390.9247,81.3554 390.9957,81.3474 C391.3047,81.2874 391.6037,81.2364 391.9027,81.1564 C395.6067,80.3794 398.9217,79.2714 401.8157,77.8534 C402.9437,77.3134 404.0217,76.7454 405.0587,76.1364 C405.3097,75.9744 405.5597,75.8254 405.8077,75.6764 C406.1977,75.4474 406.5657,75.1984 406.9467,74.9484 C407.7637,74.3894 408.5527,73.8104 409.3217,73.2024 C409.5437,73.0424 409.7527,72.8724 409.9597,72.7024 C411.1387,71.7154 412.2777,70.6664 413.3547,69.5774 C413.4637,69.4694 413.5837,69.3574 413.6847,69.2384 C414.0037,68.9084 414.3227,68.5694 414.6217,68.2294 C414.9617,67.8314 415.2987,67.4304 415.6507,67.0444 C415.9197,66.7134 416.1797,66.3754 416.4377,66.0354 C416.9277,65.3954 417.4057,64.7474 417.8657,64.0774 L397.5727,56.3714 C396.8137,57.0304 395.9867,57.6414 395.0987,58.1974 C393.6797,59.1164 392.1147,59.8764 390.3967,60.4444 C388.6697,61.0234 386.7427,61.3624 384.6177,61.4744 C382.3307,61.5224 380.2827,61.2724 378.5187,60.7344 C376.7407,60.1854 375.1447,59.5064 373.7267,58.6874 C370.8317,57.0414 368.5067,54.8154 366.7697,51.9684 C366.6107,51.7414 366.4507,51.4934 366.3097,51.2424 L382.7417,51.2424 C383.1997,51.2524 383.6587,51.2524 384.1167,51.2614 C386.8247,51.2904 389.5287,51.3014 392.2337,51.2824 C395.3967,51.2524 398.5607,51.2424 401.7357,51.2424 L423.7057,51.2424 C423.9057,50.4724 424.0747,49.6944 424.2337,48.9174 C424.2427,48.8364 424.2637,48.7474 424.2737,48.6674 C424.3347,48.3464 424.4037,48.0174 424.4437,47.6874 C424.5837,46.8594 424.6927,46.0304 424.7717,45.1924 C424.8127,44.8424 424.8437,44.4944 424.8627,44.1654 C424.8927,43.8754 424.9137,43.5954 424.9227,43.3054 C424.9327,43.2374 424.9327,43.1764 424.9327,43.1174 C424.9717,42.4294 424.9907,41.7194 424.9907,41.0104 C424.9907,40.6314 424.9907,40.2614 424.9837,39.8904 L424.9837,39.8904 Z" id="Fill-11" fill="#717071"></path>
            <g id="Group-15" fill="#717071">
                <path d="M75.3846,63.3131 C68.0836,74.5571 55.4086,82.0001 41.0056,82.0001 C18.3586,82.0001 -0.0004,63.6341 -0.0004,40.9961 C-0.0004,18.3611 18.3586,0.0001 41.0056,0.0001 C55.3626,0.0001 68.0086,7.3911 75.3206,18.5831 L63.5206,24.5311 C63.5076,24.5311 63.5016,24.5311 63.4956,24.5431 L60.0446,26.2851 L56.7856,27.9261 C53.0276,23.3871 47.3436,20.5021 41.0056,20.5021 C29.6816,20.5021 20.5026,29.6721 20.5026,40.9961 C20.5026,52.3181 29.6816,61.4981 41.0056,61.4981 C47.3966,61.4981 53.1216,58.5691 56.8766,53.9591 L59.2026,55.1371 L64.4316,57.7791 L72.3436,61.7741 L75.2836,63.2611 L75.3846,63.3131 Z" id="Fill-13"></path>
            </g>
            <polygon id="Fill-16" fill="#717071" points="72.3441 61.774 64.4321 57.779 64.4381 57.779"></polygon>
            <path d="M145.5057,45.8873 C144.9797,48.3253 144.1667,50.5543 143.0877,52.5313 C141.9957,54.5183 140.6957,56.2753 139.2137,57.7633 C137.7637,59.2063 136.0927,60.5123 134.2477,61.6513 C132.3037,62.8333 130.0937,63.7173 127.6687,64.2893 C126.1677,64.6163 124.5097,64.8223 122.5667,64.9473 C122.1517,64.9783 121.6817,64.9923 121.1757,64.9923 C119.6797,64.9923 118.2307,64.8223 116.8657,64.4833 C115.2337,64.0883 113.7267,63.6073 112.3807,63.0483 C109.5987,61.8253 107.1667,60.2073 105.1197,58.2193 C103.6437,56.7423 102.3317,55.0713 101.1997,53.2263 C100.0237,51.2753 99.1197,49.1313 98.5017,46.8293 L98.4767,46.7333 C98.1507,45.2623 97.9367,43.5783 97.8137,41.5393 C97.6767,39.6083 97.8527,37.6703 98.3207,35.8123 C98.7427,34.1593 99.2037,32.6983 99.7047,31.4703 L99.7957,31.2493 C100.4787,29.8243 101.1537,28.5963 101.8567,27.5053 C102.5717,26.3873 103.4557,25.2553 104.4887,24.1443 L104.5867,24.0403 C106.5757,22.0693 108.8967,20.4123 111.4967,19.1193 C112.8877,18.4563 114.3817,17.9173 115.9617,17.4813 C117.6327,17.0193 119.4657,16.7853 121.4157,16.7853 C121.6107,16.7793 121.8647,16.7793 122.1177,16.7793 C123.7887,16.7793 125.4197,16.9613 126.9677,17.3253 C128.7027,17.7343 130.1907,18.2213 131.5107,18.8133 C134.2607,19.9963 136.6917,21.6223 138.7077,23.6303 C140.7087,25.6383 142.3857,27.9713 143.7057,30.5593 C145.0897,33.2953 145.8507,36.5973 145.9807,40.3813 C146.0457,42.1893 145.8897,43.9893 145.5057,45.8873 M158.9167,36.1693 C158.6697,34.1083 158.2657,32.1653 157.7067,30.3973 C157.1157,28.5393 156.4467,26.8033 155.7047,25.2363 C154.7947,23.2533 153.7417,21.3873 152.5847,19.6843 L152.3237,19.2943 C150.4527,16.6813 148.2227,14.2823 145.7147,12.2023 L145.6167,12.1313 C145.3237,11.8843 145.0247,11.6513 144.7327,11.4233 C144.4327,11.1873 144.1537,10.9883 143.8737,10.7853 L143.6927,10.6563 C143.3867,10.4413 143.0687,10.2133 142.7427,9.9983 L142.6717,9.9533 C142.3207,9.7063 142.0287,9.5103 141.7427,9.3423 L141.5597,9.2253 C141.4367,9.1413 141.2997,9.0563 141.1647,8.9793 C138.6157,7.4443 135.8927,6.2163 133.0577,5.3253 L132.9417,5.2853 C132.1227,5.0653 131.2437,4.8383 130.3927,4.6433 C129.7037,4.4803 128.9827,4.3183 128.1507,4.1483 L127.5987,4.0383 C127.5127,4.0253 127.4287,4.0053 127.3507,3.9923 C126.3687,3.8623 125.2117,3.7523 124.0357,3.6943 L123.3467,3.6543 C123.2427,3.6543 123.1057,3.6483 122.9687,3.6413 C122.9037,3.6363 122.8587,3.6293 122.8197,3.6293 C122.3327,3.6163 121.9097,3.6083 121.4877,3.6083 C120.3367,3.6083 119.2327,3.6613 118.1137,3.7713 C115.2667,4.0713 112.6727,4.6103 110.4177,5.3643 C108.0897,6.1373 105.8477,7.1133 103.7547,8.2573 L103.6437,8.3213 L65.5527,27.5173 L64.1937,28.1153 C62.5357,28.8173 61.0607,29.8113 59.7927,31.0733 C57.1217,33.7123 55.6517,37.2413 55.6517,41.0123 C55.6517,44.7753 57.1147,48.2983 59.7737,50.9313 C61.2487,52.3933 63.0497,53.5253 65.0057,54.2153 L66.0327,54.5923 L103.0847,73.3183 C105.5487,74.7553 108.1687,75.8993 110.8917,76.7373 L112.1527,77.0563 C112.8877,77.2583 113.4597,77.4133 113.9857,77.5363 L115.0127,77.5363 L115.2987,77.8163 C117.3397,78.1683 119.3947,78.3633 121.4027,78.3883 L121.4747,78.3883 C122.2937,78.3883 123.1847,78.3553 124.1267,78.2853 C127.3897,78.0453 130.3987,77.4793 133.0707,76.6143 C135.7427,75.7363 138.2257,74.6443 140.4557,73.3573 L140.7937,73.1823 L141.6127,72.7653 C152.3447,66.0713 159.1047,54.0903 159.2607,41.4933 C159.2407,39.7383 159.1247,37.9363 158.9167,36.1693" id="Fill-18" fill="#ED7B4F"></path>
            <g id="Group-22" transform="translate(500.000000, 18.000000)">
                <mask id="mask-6" fill="white">
                    <use xlink:href="#path-5"></use>
                </mask>
                <g id="Clip-21"></g>
                <path d="M125.4183,50.0001 L6.1833,50.0001 C3.0503,50.0001 0.4873,47.4371 0.4873,44.3051 L0.4873,5.6951 C0.4873,2.5621 3.0503,0.0001 6.1833,0.0001 L125.4183,0.0001 C128.5513,0.0001 131.1133,2.5621 131.1133,5.6951 L131.1133,44.3051 C131.1133,47.4371 128.5513,50.0001 125.4183,50.0001" id="Fill-20" fill="#F17150" mask="url(#mask-6)"></path>
            </g>
            <path d="M541.346,47.922 C541.346,46.938 541.205,46.126 540.924,45.487 C540.643,44.849 540.075,44.307 539.219,43.861 C538.668,43.568 538.068,43.381 537.417,43.299 C536.767,43.217 535.844,43.176 534.649,43.176 L530.694,43.176 L530.694,52.844 L533.524,52.844 C535.047,52.844 536.248,52.774 537.127,52.633 C538.006,52.492 538.78,52.193 539.448,51.736 C540.104,51.279 540.584,50.761 540.889,50.181 C541.194,49.601 541.346,48.848 541.346,47.922 M540.116,36.039 C540.116,35.406 540.01,34.859 539.799,34.396 C539.588,33.933 539.248,33.567 538.78,33.297 C538.217,32.981 537.59,32.787 536.899,32.717 C536.207,32.647 535.252,32.611 534.034,32.611 L530.694,32.611 L530.694,40.276 L534.649,40.276 C535.739,40.276 536.541,40.22 537.057,40.109 C537.573,39.997 538.106,39.766 538.657,39.414 C539.184,39.074 539.559,38.629 539.782,38.078 C540.004,37.527 540.116,36.848 540.116,36.039 M544.967,47.781 C544.967,49.082 544.721,50.231 544.229,51.227 C543.737,52.223 543.075,53.043 542.242,53.688 C541.258,54.461 540.203,55.009 539.078,55.331 C537.953,55.653 536.5,55.815 534.719,55.815 L527.213,55.815 L527.213,29.641 L534.157,29.641 C536.02,29.641 537.417,29.702 538.349,29.825 C539.281,29.948 540.174,30.238 541.03,30.695 C541.967,31.199 542.653,31.859 543.086,32.673 C543.52,33.487 543.737,34.445 543.737,35.547 C543.737,36.777 543.411,37.879 542.761,38.852 C542.111,39.824 541.211,40.586 540.063,41.137 L540.063,41.277 C541.621,41.699 542.828,42.47 543.684,43.589 C544.539,44.708 544.967,46.106 544.967,47.781" id="Fill-23" fill="#FFFFFF"></path>
            <path d="M564.3343,43.8087 C564.3113,42.9177 564.2053,42.1507 564.0183,41.5057 C563.8303,40.8617 563.5613,40.3167 563.2093,39.8707 C562.8223,39.3787 562.3273,39.0037 561.7243,38.7467 C561.1203,38.4887 560.3733,38.3597 559.4823,38.3597 C558.6043,38.3597 557.8563,38.4917 557.2413,38.7547 C556.6263,39.0187 556.0663,39.4027 555.5633,39.9067 C555.0703,40.4217 554.6953,40.9937 554.4383,41.6207 C554.1803,42.2467 554.0163,42.9767 553.9453,43.8087 L564.3343,43.8087 Z M560.4673,56.2717 C557.3383,56.2717 554.9093,55.3897 553.1813,53.6257 C551.4523,51.8627 550.5883,49.3577 550.5883,46.1117 C550.5883,42.9127 551.4263,40.3667 553.1023,38.4737 C554.7773,36.5807 556.9693,35.6347 559.6763,35.6347 C560.8953,35.6347 561.9733,35.8107 562.9103,36.1627 C563.8483,36.5137 564.6683,37.0647 565.3713,37.8147 C566.0743,38.5647 566.6133,39.4817 566.9883,40.5657 C567.3633,41.6497 567.5513,42.9767 567.5513,44.5467 L567.5513,46.3397 L553.9453,46.3397 C553.9453,48.6247 554.5203,50.3707 555.6683,51.5787 C556.8163,52.7857 558.4043,53.3887 560.4323,53.3887 C561.1583,53.3887 561.8703,53.3067 562.5673,53.1427 C563.2653,52.9787 563.8953,52.7677 564.4573,52.5097 C565.0553,52.2407 565.5593,51.9797 565.9693,51.7277 C566.3793,51.4757 566.7193,51.2387 566.9883,51.0157 L567.1823,51.0157 L567.1823,54.6197 C566.7953,54.7717 566.3143,54.9617 565.7403,55.1907 C565.1663,55.4187 564.6503,55.5977 564.1933,55.7267 C563.5493,55.9027 562.9663,56.0377 562.4443,56.1307 C561.9233,56.2247 561.2643,56.2717 560.4673,56.2717 L560.4673,56.2717 Z" id="Fill-25" fill="#FFFFFF"></path>
            <path d="M580.4329,56.2013 C578.6279,56.2013 577.2219,55.6883 576.2139,54.6633 C575.2059,53.6383 574.7029,52.0173 574.7029,49.8033 L574.7029,38.9223 L572.4699,38.9223 L572.4699,36.1803 L574.7029,36.1803 L574.7029,30.5373 L578.0069,30.5373 L578.0069,36.1803 L584.0889,36.1803 L584.0889,38.9223 L578.0069,38.9223 L578.0069,48.2563 C578.0069,49.2523 578.0249,50.0193 578.0599,50.5583 C578.0949,51.0973 578.2299,51.6013 578.4639,52.0703 C578.6629,52.4803 578.9859,52.7883 579.4309,52.9933 C579.8759,53.1983 580.4799,53.3013 581.2419,53.3013 C581.7809,53.3013 582.3019,53.2223 582.8059,53.0633 C583.3099,52.9053 583.6729,52.7733 583.8959,52.6683 L584.0889,52.6683 L584.0889,55.6393 C583.4679,55.8143 582.8379,55.9523 582.1999,56.0523 C581.5609,56.1513 580.9719,56.2013 580.4329,56.2013" id="Fill-27" fill="#FFFFFF"></path>
            <path d="M601.1009,50.9806 L601.1009,45.5316 C600.3159,45.6016 599.3229,45.6986 598.1219,45.8216 C596.9199,45.9446 595.9509,46.1176 595.2119,46.3396 C594.3329,46.6096 593.6069,47.0226 593.0329,47.5796 C592.4579,48.1356 592.1709,48.9126 592.1709,49.9086 C592.1709,51.0336 592.4879,51.8826 593.1209,52.4576 C593.7529,53.0316 594.6789,53.3186 595.8979,53.3186 C596.9409,53.3186 597.8839,53.0926 598.7279,52.6416 C599.5719,52.1906 600.3629,51.6366 601.1009,50.9806 L601.1009,50.9806 Z M601.1009,53.7226 C600.8309,53.9216 600.4709,54.2006 600.0199,54.5576 C599.5689,54.9156 599.1319,55.1996 598.7099,55.4106 C598.1239,55.7146 597.5589,55.9496 597.0139,56.1136 C596.4689,56.2776 595.7049,56.3596 594.7199,56.3596 C593.9119,56.3596 593.1439,56.2076 592.4169,55.9026 C591.6909,55.5976 591.0519,55.1696 590.5009,54.6196 C589.9739,54.0806 589.5519,53.4156 589.2359,52.6246 C588.9189,51.8336 588.7609,50.9986 588.7609,50.1196 C588.7609,48.7596 589.0479,47.6026 589.6219,46.6476 C590.1969,45.6926 591.1049,44.9336 592.3469,44.3716 C593.4489,43.8676 594.7489,43.5186 596.2489,43.3256 C597.7489,43.1316 599.3669,42.9886 601.1009,42.8946 L601.1009,42.2616 C601.1009,41.4886 600.9839,40.8646 600.7489,40.3896 C600.5149,39.9156 600.1869,39.5486 599.7649,39.2916 C599.3429,39.0216 598.8279,38.8426 598.2179,38.7546 C597.6089,38.6676 596.9819,38.6236 596.3369,38.6236 C595.5759,38.6236 594.6789,38.7376 593.6479,38.9656 C592.6169,39.1946 591.5849,39.5256 590.5539,39.9596 L590.3609,39.9596 L590.3609,36.6016 C590.9699,36.4256 591.8429,36.2326 592.9799,36.0216 C594.1169,35.8106 595.2419,35.7056 596.3549,35.7056 C597.7029,35.7056 598.8389,35.8106 599.7649,36.0216 C600.6909,36.2326 601.5229,36.6136 602.2609,37.1646 C602.9759,37.7036 603.5089,38.4006 603.8609,39.2556 C604.2119,40.1116 604.3879,41.1546 604.3879,42.3846 L604.3879,55.8146 L601.1009,55.8146 L601.1009,53.7226 Z" id="Fill-29" fill="#FFFFFF"></path>
        </g>
    </g>
</svg>