<?xml version="1.0" encoding="UTF-8"?>
<svg width="647px" height="82px" viewBox="0 0 647 82" version="1.1" xmlns="http://www.w3.org/2000/svg" xmlns:xlink="http://www.w3.org/1999/xlink">
    <!-- Generator: Sketch 43.1 (39012) - http://www.bohemiancoding.com/sketch -->
    <title>alpha黑</title>
    <desc>Created with Sketch.</desc>
    <defs>
        <polygon id="path-1" points="75.3846 82 0 82 0 0.0002 75.3846 0.0002 75.3846 82"></polygon>
        <polygon id="path-3" points="145.798 -0.0003 145.798 49.9997 0.7982 49.9997 0.7982 -0.0003 145.798 -0.0003"></polygon>
    </defs>
    <g id="Page-1" stroke="none" stroke-width="1" fill="none" fill-rule="evenodd">
        <g id="alpha黑">
            <path d="M162.8328,41.529 C162.8468,42.035 162.8468,42.55 162.8398,43.069 C162.8078,45.663 162.7938,48.269 162.7938,50.889 L162.7938,81.843 L162.7168,81.928 C162.2738,81.981 161.8528,81.994 161.4418,81.968 C161.0338,81.941 160.6108,81.928 160.1748,81.928 L142.4878,81.928 L142.4098,81.843 L142.4098,76.449 C154.4798,69.441 162.6508,56.447 162.8328,41.529 Z" id="Fill-1" fill="#717071"></path>
            <path d="M249.9359,81.9997 L229.4629,81.9997 L229.4629,40.9767 C229.4629,39.3387 229.2999,37.8227 228.9709,36.4317 C228.6439,35.0407 228.2069,33.7437 227.6629,32.5397 C226.6259,30.2507 225.2309,28.2297 223.4879,26.4797 C221.7379,24.7327 219.7179,23.3417 217.4249,22.3057 C216.2239,21.7617 214.9419,21.3107 213.5789,20.9537 C212.2119,20.5997 210.6829,20.4217 208.9929,20.4217 C207.3549,20.4217 205.8389,20.5997 204.4479,20.9537 C203.0559,21.3107 201.7559,21.7617 200.5589,22.3057 C198.2649,23.3417 196.2439,24.7327 194.4979,26.4797 C193.6799,27.3547 192.9139,28.2817 192.2059,29.2677 C191.4959,30.2507 190.8669,31.3407 190.3219,32.5397 C189.7749,33.7437 189.3389,35.0407 189.0119,36.4317 C188.6849,37.8227 188.5209,39.3387 188.5209,40.9767 L188.5209,81.9997 L168.1309,81.9997 L168.0489,81.9997 L168.0489,41.4267 L168.0489,41.0997 C168.1029,40.9887 168.1439,40.9627 168.1709,41.0177 C168.1989,41.0717 168.2119,41.0427 168.2119,40.9337 L168.2119,40.1147 C168.2669,39.5157 168.2939,38.9267 168.2939,38.3537 C168.2939,37.7777 168.3489,37.1907 168.4569,36.5897 C168.7309,34.2947 169.1399,32.1497 169.6869,30.1557 C170.2319,28.1617 170.8869,26.2907 171.6509,24.5407 C174.8169,17.5997 179.3759,11.9737 185.3279,7.6557 C187.5639,6.0697 189.9939,4.6897 192.6139,3.5157 C195.2369,2.3417 198.1279,1.4257 201.2949,0.7697 C202.0599,0.6057 202.8639,0.4817 203.7099,0.4017 C204.5559,0.3177 205.4429,0.2257 206.3719,0.1137 C209.2649,-0.1023 212.0079,-0.0083 214.6029,0.4017 C217.1939,0.8117 219.5549,1.3717 221.6829,2.0827 C225.4509,3.3387 228.8909,5.0317 232.0019,7.1627 C235.0589,9.2417 237.7749,11.6707 240.1479,14.4587 C242.5249,17.2437 244.5019,20.4137 246.0849,23.9677 C246.9069,25.7717 247.6149,27.6567 248.2149,29.6247 C248.8149,31.5917 249.2519,33.7197 249.5259,36.0167 C249.6339,36.7807 249.7159,37.5457 249.7699,38.3117 C249.8259,39.0747 249.8529,39.8417 249.8529,40.6057 L249.8529,40.9337 C249.8529,41.0427 249.8669,41.0717 249.8929,41.0177 C249.9209,40.9627 249.9359,40.9887 249.9359,41.0997 L249.9359,41.4267 L249.9359,81.9997 Z" id="Fill-3" fill="#717071"></path>
            <path d="M337.4827,81.9997 L317.0107,81.9997 L317.0107,40.9767 C317.0107,39.3387 316.8477,37.8227 316.5207,36.4317 C316.1907,35.0407 315.7537,33.7437 315.2097,32.5397 C314.1707,30.2507 312.7787,28.2297 311.0327,26.4797 C309.2847,24.7327 307.2657,23.3417 304.9717,22.3057 C303.7717,21.7617 302.4887,21.3107 301.1237,20.9537 C299.7597,20.5997 298.2307,20.4217 296.5397,20.4217 C294.9007,20.4217 293.3867,20.5997 291.9927,20.9537 C290.6027,21.3107 289.3037,21.7617 288.1027,22.3057 C285.8127,23.3417 283.7917,24.7327 282.0447,26.4797 C281.2267,27.3547 280.4597,28.2817 279.7517,29.2677 C279.0427,30.2507 278.4147,31.3407 277.8677,32.5397 C277.3217,33.7437 276.8877,35.0407 276.5597,36.4317 C276.2307,37.8227 276.0677,39.3387 276.0677,40.9767 L276.0677,81.9997 L255.6767,81.9997 L255.5937,81.9997 L255.5937,41.4267 L255.5937,41.0997 C255.6497,40.9887 255.6897,40.9627 255.7167,41.0177 C255.7447,41.0717 255.7597,41.0427 255.7597,40.9337 L255.7597,40.1147 C255.8127,39.5157 255.8397,38.9267 255.8397,38.3537 C255.8397,37.7777 255.8947,37.1907 256.0057,36.5897 C256.2777,34.2947 256.6857,32.1497 257.2317,30.1557 C257.7767,28.1617 258.4347,26.2907 259.1977,24.5407 C262.3637,17.5997 266.9207,11.9737 272.8717,7.6557 C275.1117,6.0697 277.5427,4.6897 280.1597,3.5157 C282.7807,2.3417 285.6727,1.4257 288.8397,0.7697 C289.6037,0.6057 290.4097,0.4817 291.2577,0.4017 C292.1037,0.3177 292.9887,0.2257 293.9197,0.1137 C296.8097,-0.1023 299.5547,-0.0083 302.1487,0.4017 C304.7407,0.8117 307.1037,1.3717 309.2327,2.0827 C312.9997,3.3387 316.4377,5.0317 319.5487,7.1627 C322.6037,9.2417 325.3207,11.6707 327.6997,14.4587 C330.0717,17.2437 332.0507,20.4137 333.6337,23.9677 C334.4527,25.7717 335.1607,27.6567 335.7627,29.6247 C336.3627,31.5917 336.7957,33.7197 337.0737,36.0167 C337.1807,36.7807 337.2637,37.5457 337.3167,38.3117 C337.3717,39.0747 337.3997,39.8417 337.3997,40.6057 L337.3997,40.9337 C337.3997,41.0427 337.4137,41.0717 337.4417,41.0177 C337.4687,40.9627 337.4827,40.9887 337.4827,41.0997 L337.4827,41.4267 L337.4827,81.9997 Z" id="Fill-5" fill="#717071"></path>
            <path d="M451.5716,81.944 L431.1006,81.944 L431.1006,41.494 L431.1006,41.165 L431.1006,41.083 C431.1006,41.028 431.1306,41.002 431.1836,41.002 C431.2906,37.673 431.6606,34.629 432.2896,31.87 C432.9156,29.116 433.7746,26.56 434.8696,24.215 C436.9966,19.519 439.7816,15.481 443.2186,12.093 C444.9096,10.403 446.7556,8.846 448.7476,7.428 C450.7386,6.007 452.9126,4.779 455.2576,3.742 C457.6066,2.653 460.1556,1.777 462.9126,1.125 C465.6726,0.466 468.7136,0.113 472.0446,0.056 L472.0446,20.366 C468.7686,20.475 465.9686,21.076 463.6506,22.167 C461.3326,23.261 459.2986,24.676 457.5506,26.424 C456.7336,27.299 455.9676,28.226 455.2576,29.208 C454.5476,30.192 453.9206,31.284 453.3726,32.484 C452.8266,33.685 452.3926,34.969 452.0646,36.334 C451.7376,37.699 451.5716,39.227 451.5716,40.92 L451.5716,81.862 L451.5716,81.944 Z" id="Fill-7" fill="#717071"></path>
            <path d="M366.1507,30.7594 C366.1607,30.7384 366.1897,30.6984 366.1997,30.6794 C367.8287,27.8444 370.0647,25.4984 372.9097,23.6434 C374.3267,22.7144 375.8937,21.9554 377.6197,21.3974 C379.3377,20.8184 381.2237,20.4794 383.2987,20.3574 C385.5457,20.3194 387.6717,20.5864 389.6887,21.1864 C392.5227,21.9444 394.9477,23.1624 396.9347,24.8294 C397.1747,25.0304 397.4127,25.2384 397.6427,25.4494 C398.7307,26.4274 399.6987,27.5044 400.5467,28.7034 C400.7277,28.9524 400.9187,29.2134 401.0887,29.4724 C401.2067,29.6424 401.3167,29.8104 401.4257,29.9804 C401.5957,30.2314 401.7357,30.4884 401.8947,30.7594 L366.1507,30.7594 Z M424.9837,39.8914 C424.9717,39.4624 424.9427,39.0244 424.9227,38.5944 C424.7617,35.9894 424.3847,33.4644 423.7657,31.0074 C423.6657,30.6004 423.5457,30.2104 423.4357,29.8004 C422.5677,26.7164 421.3287,23.7614 419.7827,21.0164 C419.6037,20.6774 419.4037,20.3374 419.1927,20.0074 C418.0747,18.1724 416.8387,16.4344 415.4897,14.8004 C414.1717,13.2514 412.7467,11.7644 411.1877,10.3564 C410.8287,10.0354 410.4697,9.7174 410.0987,9.4084 C410.0507,9.3774 410.0197,9.3594 409.9807,9.3294 C407.8047,7.5414 405.4277,5.9734 402.9237,4.6564 C402.7437,4.5684 402.5647,4.4754 402.3827,4.3984 C401.0767,3.7974 399.7107,3.2094 398.2927,2.6394 C397.9927,2.5304 397.6937,2.4024 397.4037,2.3004 C393.2207,0.8544 388.7397,0.0654 384.0687,0.0654 C383.6297,0.0654 383.1897,0.0764 382.7597,0.0854 C382.3117,0.1054 381.8807,0.1244 381.4537,0.1544 C381.2937,0.1654 381.1327,0.1764 380.9637,0.1954 C380.6637,0.2154 380.3447,0.2344 380.0357,0.2654 C379.8857,0.2844 379.7557,0.3054 379.6047,0.3144 C378.7377,0.4064 377.8887,0.5334 377.0507,0.6654 C376.9627,0.6754 376.8707,0.7034 376.7907,0.7144 C375.9537,0.8734 375.1257,1.0424 374.3067,1.2424 C373.4477,1.4524 372.5987,1.6934 371.7517,1.9624 C371.4117,2.0604 371.0707,2.1734 370.7427,2.2904 C370.5907,2.3314 370.4417,2.3914 370.2937,2.4504 C369.9437,2.5714 369.6147,2.7004 369.2747,2.8314 C368.8757,2.9794 368.4767,3.1384 368.0867,3.3094 C368.0677,3.3094 368.0467,3.3204 368.0387,3.3304 C367.6487,3.4894 367.2577,3.6594 366.8797,3.8484 C365.9827,4.2484 365.1117,4.6964 364.2547,5.1764 C363.9747,5.3254 363.6757,5.4954 363.4057,5.6564 C362.6677,6.0854 361.9597,6.5434 361.2497,7.0124 C360.5197,7.4924 359.8117,8.0204 359.1037,8.5614 C358.4257,9.0894 357.7567,9.6264 357.1067,10.1964 C356.4687,10.7674 355.8297,11.3544 355.2307,11.9624 C355.0017,12.1834 354.7727,12.4034 354.5627,12.6424 C354.3327,12.8714 354.1137,13.1014 353.9037,13.3414 C353.6127,13.6404 353.3447,13.9594 353.0647,14.2794 C352.8457,14.5184 352.6457,14.7684 352.4357,15.0284 C352.2267,15.2874 352.0067,15.5474 351.7977,15.8254 C350.7707,17.1444 349.8197,18.5114 348.9517,19.9484 C348.9317,19.9984 348.9127,20.0394 348.8717,20.0874 C348.6737,20.4264 348.4637,20.7764 348.2727,21.1364 C348.0447,21.5354 347.8347,21.9554 347.6147,22.3644 C347.4247,22.7344 347.2457,23.0924 347.0867,23.4734 C347.0167,23.5814 346.9657,23.6904 346.9267,23.8134 C346.8167,24.0414 346.7067,24.2604 346.6167,24.4894 C346.3467,25.0704 346.1087,25.6494 345.8867,26.2284 C345.7087,26.6754 345.5397,27.1454 345.3887,27.6064 C345.2887,27.8564 345.2097,28.1244 345.1297,28.3834 C345.0207,28.7034 344.9207,29.0314 344.8307,29.3524 C344.7407,29.6424 344.6507,29.9214 344.5807,30.2104 C344.4407,30.7194 344.3007,31.2384 344.1907,31.7564 C344.1217,32.0564 344.0507,32.3354 344.0037,32.6454 C343.8517,33.3454 343.7207,34.0544 343.6117,34.7634 C343.5627,35.1114 343.5117,35.4504 343.4707,35.7894 C343.4427,36.0094 343.4227,36.2384 343.3917,36.4684 C343.3437,36.9174 343.2947,37.3864 343.2617,37.8574 C343.2047,38.5534 343.1727,39.2554 343.1437,39.9624 C343.1337,40.5304 343.1437,41.0604 343.1437,41.6094 C343.1637,42.6974 343.2227,43.7654 343.3127,44.8224 C343.3527,45.1824 343.3917,45.5314 343.4317,45.8814 C343.4707,46.3004 343.5317,46.7104 343.5917,47.1084 C343.6417,47.3884 343.6927,47.6874 343.7417,47.9764 C343.7927,48.3374 343.8517,48.6774 343.9307,49.0154 C344.0037,49.3554 344.0607,49.6944 344.1397,50.0334 C344.2217,50.3724 344.3007,50.7114 344.3817,51.0414 C344.6297,52.0614 344.9297,53.0884 345.2697,54.0764 C345.3707,54.3754 345.4887,54.6944 345.5987,55.0044 C345.7087,55.3234 345.8387,55.6314 345.9577,55.9624 C346.2077,56.6014 346.4657,57.2324 346.7557,57.8494 C346.8867,58.1494 347.0267,58.4464 347.1747,58.7484 C347.3647,59.1384 347.5647,59.5254 347.7547,59.9154 C350.7707,65.6754 355.1007,70.6364 360.3817,74.3794 C360.4407,74.4394 360.5197,74.4884 360.6017,74.5384 C360.9107,74.7474 361.2107,74.9584 361.5187,75.1554 C361.8697,75.3984 362.2187,75.6274 362.5777,75.8354 C362.9077,76.0564 363.2477,76.2664 363.5947,76.4554 C364.2057,76.8034 364.8137,77.1344 365.4417,77.4544 C365.7327,77.6044 366.0317,77.7424 366.3207,77.8924 C366.6197,78.0424 366.9197,78.1834 367.2197,78.3114 C369.3357,79.2814 371.5507,80.0484 373.8477,80.6384 C373.9567,80.6774 374.0767,80.7064 374.2067,80.7274 C374.6447,80.8484 375.1037,80.9384 375.5537,81.0374 C376.9407,81.3064 378.3677,81.5354 379.8657,81.6974 C381.0137,81.8164 382.1407,81.8854 383.2597,81.9264 C383.5287,81.9364 383.7907,81.9364 384.0687,81.9364 C384.4177,81.9364 384.7667,81.9364 385.1157,81.9264 C385.6057,81.9054 386.0837,81.8854 386.5747,81.8664 C388.0017,81.7764 389.4087,81.6064 390.7867,81.3764 C390.8557,81.3674 390.9247,81.3564 390.9957,81.3474 C391.3047,81.2874 391.6037,81.2364 391.9027,81.1564 C395.6067,80.3794 398.9217,79.2714 401.8157,77.8534 C402.9437,77.3144 404.0217,76.7444 405.0587,76.1364 C405.3097,75.9744 405.5597,75.8254 405.8077,75.6764 C406.1977,75.4474 406.5657,75.1974 406.9467,74.9484 C407.7637,74.3894 408.5527,73.8114 409.3217,73.2024 C409.5437,73.0424 409.7527,72.8714 409.9597,72.7014 C411.1387,71.7144 412.2777,70.6654 413.3547,69.5774 C413.4637,69.4694 413.5837,69.3574 413.6847,69.2384 C414.0037,68.9084 414.3227,68.5694 414.6217,68.2304 C414.9617,67.8304 415.2987,67.4304 415.6507,67.0434 C415.9197,66.7134 416.1797,66.3754 416.4377,66.0354 C416.9277,65.3954 417.4057,64.7474 417.8657,64.0774 L397.5727,56.3714 C396.8137,57.0304 395.9867,57.6414 395.0987,58.1964 C393.6797,59.1164 392.1147,59.8764 390.3967,60.4454 C388.6697,61.0234 386.7427,61.3624 384.6177,61.4754 C382.3307,61.5224 380.2827,61.2724 378.5187,60.7344 C376.7407,60.1864 375.1447,59.5054 373.7267,58.6874 C370.8317,57.0404 368.5067,54.8154 366.7697,51.9694 C366.6107,51.7414 366.4507,51.4924 366.3097,51.2414 L382.7417,51.2414 C383.1997,51.2524 383.6587,51.2524 384.1167,51.2614 C386.8247,51.2904 389.5287,51.3014 392.2337,51.2814 C395.3967,51.2524 398.5607,51.2414 401.7357,51.2414 L423.7057,51.2414 C423.9057,50.4724 424.0747,49.6944 424.2337,48.9164 C424.2427,48.8364 424.2637,48.7464 424.2737,48.6674 C424.3347,48.3474 424.4037,48.0174 424.4437,47.6874 C424.5837,46.8604 424.6927,46.0304 424.7717,45.1934 C424.8127,44.8434 424.8437,44.4944 424.8627,44.1654 C424.8927,43.8744 424.9137,43.5954 424.9227,43.3054 C424.9327,43.2374 424.9327,43.1764 424.9327,43.1174 C424.9717,42.4294 424.9907,41.7194 424.9907,41.0104 C424.9907,40.6304 424.9907,40.2624 424.9837,39.8914 L424.9837,39.8914 Z" id="Fill-9" fill="#717071"></path>
            <g id="Group-13">
                <mask id="mask-2" fill="white">
                    <use xlink:href="#path-1"></use>
                </mask>
                <g id="Clip-12"></g>
                <path d="M75.3846,63.3132 C68.0836,74.5562 55.4086,82.0002 41.0056,82.0002 C18.3586,82.0002 -0.0004,63.6342 -0.0004,40.9962 C-0.0004,18.3612 18.3586,0.0002 41.0056,0.0002 C55.3626,0.0002 68.0086,7.3912 75.3206,18.5832 L63.5206,24.5312 C63.5076,24.5312 63.5016,24.5312 63.4956,24.5422 L60.0446,26.2852 L56.7856,27.9262 C53.0276,23.3872 47.3436,20.5012 41.0056,20.5012 C29.6816,20.5012 20.5026,29.6722 20.5026,40.9962 C20.5026,52.3182 29.6816,61.4982 41.0056,61.4982 C47.3966,61.4982 53.1216,58.5692 56.8766,53.9592 L59.2026,55.1362 L64.4316,57.7792 L72.3436,61.7742 L75.2836,63.2602 L75.3846,63.3132 Z" id="Fill-11" fill="#717071" mask="url(#mask-2)"></path>
            </g>
            <polygon id="Fill-14" fill="#717071" points="72.3441 61.7741 64.4321 57.7791 64.4381 57.7791"></polygon>
            <path d="M145.5057,45.8874 C144.9797,48.3254 144.1667,50.5544 143.0877,52.5314 C141.9957,54.5194 140.6957,56.2754 139.2137,57.7634 C137.7637,59.2064 136.0927,60.5134 134.2477,61.6514 C132.3037,62.8334 130.0937,63.7174 127.6687,64.2894 C126.1677,64.6164 124.5097,64.8224 122.5667,64.9474 C122.1517,64.9784 121.6817,64.9924 121.1757,64.9924 C119.6797,64.9924 118.2307,64.8224 116.8657,64.4844 C115.2337,64.0884 113.7267,63.6074 112.3807,63.0484 C109.5987,61.8254 107.1667,60.2074 105.1197,58.2194 C103.6437,56.7424 102.3317,55.0724 101.1997,53.2264 C100.0237,51.2764 99.1197,49.1314 98.5017,46.8294 L98.4767,46.7334 C98.1507,45.2624 97.9367,43.5784 97.8137,41.5394 C97.6767,39.6084 97.8527,37.6704 98.3207,35.8124 C98.7427,34.1594 99.2037,32.6984 99.7047,31.4704 L99.7957,31.2484 C100.4787,29.8254 101.1537,28.5974 101.8567,27.5044 C102.5717,26.3864 103.4557,25.2554 104.4887,24.1454 L104.5867,24.0394 C106.5757,22.0704 108.8967,20.4124 111.4967,19.1194 C112.8877,18.4564 114.3817,17.9174 115.9617,17.4814 C117.6327,17.0204 119.4657,16.7854 121.4157,16.7854 C121.6107,16.7794 121.8647,16.7794 122.1177,16.7794 C123.7887,16.7794 125.4197,16.9614 126.9677,17.3254 C128.7027,17.7344 130.1907,18.2214 131.5107,18.8144 C134.2607,19.9964 136.6917,21.6214 138.7077,23.6304 C140.7087,25.6384 142.3857,27.9724 143.7057,30.5604 C145.0897,33.2954 145.8507,36.5974 145.9807,40.3804 C146.0457,42.1894 145.8897,43.9904 145.5057,45.8874 M158.9167,36.1694 C158.6697,34.1084 158.2657,32.1654 157.7067,30.3974 C157.1157,28.5384 156.4467,26.8034 155.7047,25.2364 C154.7947,23.2534 153.7417,21.3874 152.5847,19.6844 L152.3237,19.2944 C150.4527,16.6814 148.2227,14.2824 145.7147,12.2024 L145.6167,12.1314 C145.3237,11.8844 145.0247,11.6514 144.7327,11.4224 C144.4327,11.1884 144.1537,10.9884 143.8737,10.7854 L143.6927,10.6574 C143.3867,10.4414 143.0687,10.2134 142.7427,9.9974 L142.6717,9.9534 C142.3207,9.7064 142.0287,9.5104 141.7427,9.3424 L141.5597,9.2254 C141.4367,9.1414 141.2997,9.0564 141.1647,8.9794 C138.6157,7.4444 135.8927,6.2164 133.0577,5.3254 L132.9417,5.2854 C132.1227,5.0654 131.2437,4.8384 130.3927,4.6434 C129.7037,4.4804 128.9827,4.3184 128.1507,4.1484 L127.5987,4.0384 C127.5127,4.0254 127.4287,4.0054 127.3507,3.9924 C126.3687,3.8624 125.2117,3.7524 124.0357,3.6944 L123.3467,3.6544 C123.2427,3.6544 123.1057,3.6484 122.9687,3.6414 C122.9037,3.6354 122.8587,3.6294 122.8197,3.6294 C122.3327,3.6164 121.9097,3.6084 121.4877,3.6084 C120.3367,3.6084 119.2327,3.6614 118.1137,3.7714 C115.2667,4.0704 112.6727,4.6104 110.4177,5.3654 C108.0897,6.1374 105.8477,7.1134 103.7547,8.2564 L103.6437,8.3214 L65.5527,27.5174 L64.1937,28.1164 C62.5357,28.8184 61.0607,29.8124 59.7927,31.0734 C57.1217,33.7124 55.6517,37.2414 55.6517,41.0124 C55.6517,44.7754 57.1147,48.2984 59.7737,50.9314 C61.2487,52.3934 63.0497,53.5254 65.0057,54.2144 L66.0327,54.5914 L103.0847,73.3184 C105.5487,74.7554 108.1687,75.8994 110.8917,76.7374 L112.1527,77.0564 C112.8877,77.2584 113.4597,77.4134 113.9857,77.5364 L115.0127,77.5364 L115.2987,77.8164 C117.3397,78.1684 119.3947,78.3634 121.4027,78.3894 L121.4747,78.3894 C122.2937,78.3894 123.1847,78.3554 124.1267,78.2844 C127.3897,78.0444 130.3987,77.4794 133.0707,76.6144 C135.7427,75.7364 138.2257,74.6454 140.4557,73.3574 L140.7937,73.1824 L141.6127,72.7654 C152.3447,66.0714 159.1047,54.0894 159.2607,41.4934 C159.2407,39.7384 159.1247,37.9364 158.9167,36.1694" id="Fill-16" fill="#ED7B4F"></path>
            <g id="Group-20" transform="translate(501.000000, 16.000000)">
                <mask id="mask-4" fill="white">
                    <use xlink:href="#path-3"></use>
                </mask>
                <g id="Clip-19"></g>
                <path d="M139.7982,49.9997 L6.7982,49.9997 C3.4982,49.9997 0.7982,47.3007 0.7982,43.9997 L0.7982,5.9997 C0.7982,2.6997 3.4982,-0.0003 6.7982,-0.0003 L139.7982,-0.0003 C143.0982,-0.0003 145.7982,2.6997 145.7982,5.9997 L145.7982,43.9997 C145.7982,47.3007 143.0982,49.9997 139.7982,49.9997" id="Fill-18" fill="#E55A6D" mask="url(#mask-4)"></path>
            </g>
            <path d="M538.7181,42.7712 L534.6751,30.4312 L530.6501,42.7712 L538.7181,42.7712 Z M523.7941,53.0542 L532.6181,26.8802 L536.9071,26.8802 L545.7321,53.0542 L542.0581,53.0542 L539.6851,45.7422 L529.6831,45.7422 L527.3101,53.0542 L523.7941,53.0542 Z" id="Fill-21" fill="#FFFFFF"></path>
            <polygon id="Fill-23" fill="#FFFFFF" points="551.616 53.054 554.921 53.054 554.921 25.702 551.616 25.702"></polygon>
            <path d="M576.4339,43.0876 C576.4339,40.8496 576.0769,39.1116 575.3619,37.8756 C574.6469,36.6396 573.4869,36.0216 571.8809,36.0216 C570.9439,36.0216 570.0379,36.2296 569.1649,36.6456 C568.2919,37.0616 567.4629,37.5976 566.6779,38.2536 L566.6779,49.3806 C567.5449,49.8026 568.2869,50.0896 568.9019,50.2416 C569.5169,50.3946 570.2229,50.4706 571.0199,50.4706 C572.7309,50.4706 574.0609,49.8436 575.0099,48.5896 C575.9589,47.3356 576.4339,45.5016 576.4339,43.0876 M579.8439,42.7186 C579.8439,45.9876 579.0619,48.5926 577.4969,50.5316 C575.9329,52.4716 573.9549,53.4416 571.5649,53.4416 C570.5919,53.4416 569.7309,53.3296 568.9809,53.1076 C568.2309,52.8846 567.4629,52.5386 566.6779,52.0696 L566.6779,60.2966 L563.3729,60.2966 L563.3729,33.4196 L566.6779,33.4196 L566.6779,35.4766 C567.4979,34.7376 568.4099,34.1196 569.4119,33.6216 C570.4129,33.1236 571.5059,32.8746 572.6899,32.8746 C574.9399,32.8746 576.6949,33.7656 577.9549,35.5466 C579.2139,37.3276 579.8439,39.7186 579.8439,42.7186" id="Fill-25" fill="#FFFFFF"></path>
            <path d="M602.305,53.0544 L599,53.0544 L599,41.8744 C599,40.9724 598.956,40.1314 598.868,39.3524 C598.781,38.5734 598.614,37.9494 598.367,37.4804 C598.098,36.9884 597.723,36.6214 597.243,36.3814 C596.762,36.1414 596.106,36.0214 595.274,36.0214 C594.453,36.0214 593.607,36.2414 592.734,36.6804 C591.861,37.1194 591.008,37.6914 590.176,38.3944 L590.176,53.0544 L586.871,53.0544 L586.871,25.7024 L590.176,25.7024 L590.176,35.5994 C591.16,34.7204 592.133,34.0464 593.094,33.5774 C594.055,33.1094 595.069,32.8744 596.135,32.8744 C598.069,32.8744 599.58,33.5104 600.67,34.7824 C601.76,36.0534 602.305,37.8964 602.305,40.3104 L602.305,53.0544 Z" id="Fill-26" fill="#FFFFFF"></path>
            <path d="M621.515,48.2204 L621.515,42.7714 C620.73,42.8414 619.737,42.9384 618.536,43.0614 C617.334,43.1844 616.365,43.3574 615.626,43.5794 C614.747,43.8494 614.021,44.2624 613.447,44.8194 C612.872,45.3754 612.585,46.1524 612.585,47.1484 C612.585,48.2734 612.902,49.1224 613.535,49.6974 C614.167,50.2714 615.093,50.5584 616.312,50.5584 C617.355,50.5584 618.298,50.3324 619.142,49.8814 C619.986,49.4304 620.777,48.8764 621.515,48.2204 L621.515,48.2204 Z M621.515,50.9624 C621.245,51.1614 620.885,51.4404 620.434,51.7974 C619.983,52.1554 619.546,52.4394 619.124,52.6504 C618.538,52.9544 617.973,53.1894 617.428,53.3534 C616.883,53.5174 616.119,53.5994 615.134,53.5994 C614.326,53.5994 613.558,53.4474 612.831,53.1424 C612.105,52.8374 611.466,52.4094 610.915,51.8594 C610.388,51.3204 609.966,50.6554 609.65,49.8644 C609.333,49.0734 609.175,48.2384 609.175,47.3594 C609.175,45.9994 609.462,44.8424 610.036,43.8874 C610.611,42.9324 611.519,42.1734 612.761,41.6114 C613.863,41.1074 615.163,40.7584 616.663,40.5654 C618.163,40.3714 619.781,40.2284 621.515,40.1344 L621.515,39.5014 C621.515,38.7284 621.398,38.1044 621.163,37.6294 C620.929,37.1554 620.601,36.7884 620.179,36.5314 C619.757,36.2614 619.242,36.0824 618.632,35.9944 C618.023,35.9074 617.396,35.8634 616.751,35.8634 C615.99,35.8634 615.093,35.9774 614.062,36.2054 C613.031,36.4344 611.999,36.7654 610.968,37.1994 L610.775,37.1994 L610.775,33.8414 C611.384,33.6654 612.257,33.4724 613.394,33.2614 C614.531,33.0504 615.656,32.9454 616.769,32.9454 C618.117,32.9454 619.253,33.0504 620.179,33.2614 C621.105,33.4724 621.937,33.8534 622.675,34.4044 C623.39,34.9434 623.923,35.6404 624.275,36.4954 C624.626,37.3514 624.802,38.3944 624.802,39.6244 L624.802,53.0544 L621.515,53.0544 L621.515,50.9624 Z" id="Fill-27" fill="#FFFFFF"></path>
        </g>
    </g>
</svg>